<svg xmlns="http://www.w3.org/2000/svg" xmlns:xlink="http://www.w3.org/1999/xlink" width="8000" zoomAndPan="magnify" viewBox="0 0 6000 1499.999933" height="2000" preserveAspectRatio="xMidYMid meet" version="1.0"><defs><g/><clipPath id="e28bfdb590"><rect x="0" width="5936" y="0" height="1500"/></clipPath></defs><g transform="matrix(1, 0, 0, 1, 34, 0.000000000000112861)"><g clip-path="url(#e28bfdb590)"><g fill="#000000" fill-opacity="1"><g transform="translate(1.034071, 1304.21961)"><g><path d="M 424.578125 65.765625 C 374.066406 65.765625 324.984375 52.660156 277.328125 26.453125 C 229.679688 0.242188 187.507812 -37.875 150.8125 -87.90625 C 114.125 -137.945312 84.582031 -199.421875 62.1875 -272.328125 C 39.789062 -345.234375 28.59375 -428.382812 28.59375 -521.78125 C 28.59375 -603.738281 38.359375 -680.21875 57.890625 -751.21875 C 77.429688 -822.21875 105.304688 -883.6875 141.515625 -935.625 C 177.734375 -987.5625 221.570312 -1028.300781 273.03125 -1057.84375 C 324.5 -1087.394531 382.632812 -1102.171875 447.4375 -1102.171875 C 471.269531 -1102.171875 503.910156 -1098.359375 545.359375 -1090.734375 C 586.816406 -1083.109375 630.894531 -1065.476562 677.59375 -1037.84375 C 683.3125 -1034.976562 686.171875 -1030.6875 686.171875 -1024.96875 L 686.171875 -859.140625 C 686.171875 -851.523438 682.359375 -847.71875 674.734375 -847.71875 L 464.59375 -847.71875 C 419.800781 -847.71875 383.585938 -836.992188 355.953125 -815.546875 C 328.316406 -794.109375 307.113281 -767.1875 292.34375 -734.78125 C 277.570312 -702.375 267.800781 -667.585938 263.03125 -630.421875 C 258.269531 -593.253906 255.890625 -559.421875 255.890625 -528.921875 C 255.890625 -489.847656 261.84375 -450.296875 273.75 -410.265625 C 285.664062 -370.242188 302.34375 -334.269531 323.78125 -302.34375 C 345.226562 -270.414062 371.675781 -244.207031 403.125 -223.71875 C 434.570312 -203.226562 469.359375 -192.984375 507.484375 -192.984375 L 670.453125 -192.984375 C 678.078125 -192.984375 681.890625 -189.171875 681.890625 -181.546875 L 681.890625 -8.578125 C 681.890625 -2.859375 679.503906 1.425781 674.734375 4.28125 C 610.878906 45.269531 527.492188 65.765625 424.578125 65.765625 Z M 424.578125 65.765625 "/></g></g></g><g fill="#000000" fill-opacity="1"><g transform="translate(665.761054, 1304.21961)"><g><path d="M 94.34375 50.03125 C 87.675781 50.03125 83.863281 46.695312 82.90625 40.03125 C 69.570312 -37.164062 58.375 -126.273438 49.3125 -227.296875 C 40.257812 -328.316406 35.734375 -434.578125 35.734375 -546.078125 C 35.734375 -635.660156 39.066406 -725.71875 45.734375 -816.25 C 52.410156 -906.789062 63.847656 -993.992188 80.046875 -1077.859375 C 81.003906 -1084.535156 84.816406 -1087.875 91.484375 -1087.875 L 244.453125 -1087.875 C 252.078125 -1087.875 255.890625 -1084.0625 255.890625 -1076.4375 L 255.890625 -640.4375 L 458.875 -640.4375 L 458.875 -1076.4375 C 458.875 -1084.0625 462.6875 -1087.875 470.3125 -1087.875 L 623.28125 -1087.875 C 629.945312 -1087.875 633.757812 -1084.535156 634.71875 -1077.859375 C 650.914062 -993.992188 662.347656 -906.789062 669.015625 -816.25 C 675.691406 -725.71875 679.03125 -635.660156 679.03125 -546.078125 C 679.03125 -434.578125 674.5 -328.316406 665.4375 -227.296875 C 656.382812 -126.273438 645.191406 -37.164062 631.859375 40.03125 C 630.898438 46.695312 627.085938 50.03125 620.421875 50.03125 L 470.3125 50.03125 C 462.6875 50.03125 458.875 46.21875 458.875 38.59375 L 458.875 -440.296875 L 255.890625 -440.296875 L 255.890625 38.59375 C 255.890625 46.21875 252.078125 50.03125 244.453125 50.03125 Z M 94.34375 50.03125 "/></g></g></g><g fill="#000000" fill-opacity="1"><g transform="translate(1330.488036, 1304.21961)"><g><path d="M 108.640625 50.03125 C 101.972656 50.03125 98.160156 46.695312 97.203125 40.03125 C 83.859375 -37.164062 72.660156 -126.273438 63.609375 -227.296875 C 54.554688 -328.316406 50.03125 -434.578125 50.03125 -546.078125 C 50.03125 -635.660156 53.363281 -725.71875 60.03125 -816.25 C 66.707031 -906.789062 78.144531 -993.992188 94.34375 -1077.859375 C 95.300781 -1084.535156 99.113281 -1087.875 105.78125 -1087.875 L 639 -1087.875 C 646.625 -1087.875 650.4375 -1084.0625 650.4375 -1076.4375 L 650.4375 -884.875 C 650.4375 -877.25 646.625 -873.4375 639 -873.4375 L 270.1875 -873.4375 L 270.1875 -640.4375 L 600.40625 -640.4375 C 608.03125 -640.4375 611.84375 -636.625 611.84375 -629 L 611.84375 -451.734375 C 611.84375 -444.109375 608.03125 -440.296875 600.40625 -440.296875 L 270.1875 -440.296875 L 270.1875 -164.390625 L 653.296875 -164.390625 C 660.921875 -164.390625 664.734375 -160.578125 664.734375 -152.953125 L 664.734375 38.59375 C 664.734375 46.21875 660.921875 50.03125 653.296875 50.03125 Z M 108.640625 50.03125 "/></g></g></g><g fill="#000000" fill-opacity="1"><g transform="translate(1995.215085, 1304.21961)"><g><path d="M 424.578125 65.765625 C 374.066406 65.765625 324.984375 52.660156 277.328125 26.453125 C 229.679688 0.242188 187.507812 -37.875 150.8125 -87.90625 C 114.125 -137.945312 84.582031 -199.421875 62.1875 -272.328125 C 39.789062 -345.234375 28.59375 -428.382812 28.59375 -521.78125 C 28.59375 -603.738281 38.359375 -680.21875 57.890625 -751.21875 C 77.429688 -822.21875 105.304688 -883.6875 141.515625 -935.625 C 177.734375 -987.5625 221.570312 -1028.300781 273.03125 -1057.84375 C 324.5 -1087.394531 382.632812 -1102.171875 447.4375 -1102.171875 C 471.269531 -1102.171875 503.910156 -1098.359375 545.359375 -1090.734375 C 586.816406 -1083.109375 630.894531 -1065.476562 677.59375 -1037.84375 C 683.3125 -1034.976562 686.171875 -1030.6875 686.171875 -1024.96875 L 686.171875 -859.140625 C 686.171875 -851.523438 682.359375 -847.71875 674.734375 -847.71875 L 464.59375 -847.71875 C 419.800781 -847.71875 383.585938 -836.992188 355.953125 -815.546875 C 328.316406 -794.109375 307.113281 -767.1875 292.34375 -734.78125 C 277.570312 -702.375 267.800781 -667.585938 263.03125 -630.421875 C 258.269531 -593.253906 255.890625 -559.421875 255.890625 -528.921875 C 255.890625 -489.847656 261.84375 -450.296875 273.75 -410.265625 C 285.664062 -370.242188 302.34375 -334.269531 323.78125 -302.34375 C 345.226562 -270.414062 371.675781 -244.207031 403.125 -223.71875 C 434.570312 -203.226562 469.359375 -192.984375 507.484375 -192.984375 L 670.453125 -192.984375 C 678.078125 -192.984375 681.890625 -189.171875 681.890625 -181.546875 L 681.890625 -8.578125 C 681.890625 -2.859375 679.503906 1.425781 674.734375 4.28125 C 610.878906 45.269531 527.492188 65.765625 424.578125 65.765625 Z M 424.578125 65.765625 "/></g></g></g><g fill="#000000" fill-opacity="1"><g transform="translate(2659.942001, 1304.21961)"><g><path d="M 87.203125 50.03125 C 80.523438 50.03125 76.710938 46.695312 75.765625 40.03125 C 62.421875 -37.164062 51.222656 -126.273438 42.171875 -227.296875 C 33.117188 -328.316406 28.59375 -434.578125 28.59375 -546.078125 C 28.59375 -635.660156 31.925781 -725.71875 38.59375 -816.25 C 45.269531 -906.789062 56.707031 -993.992188 72.90625 -1077.859375 C 73.851562 -1084.535156 77.664062 -1087.875 84.34375 -1087.875 L 237.296875 -1087.875 C 244.921875 -1087.875 248.734375 -1084.0625 248.734375 -1076.4375 L 248.734375 -664.734375 L 464.59375 -1079.296875 C 467.457031 -1085.015625 471.75 -1087.875 477.46875 -1087.875 L 664.734375 -1087.875 C 673.304688 -1087.875 676.164062 -1083.582031 673.3125 -1075 C 647.582031 -989.226562 614.941406 -905.363281 575.390625 -823.40625 C 535.835938 -741.445312 491.28125 -666.160156 441.71875 -597.546875 C 476.988281 -549.890625 508.914062 -495.566406 537.5 -434.578125 C 566.09375 -373.585938 590.875 -313.304688 611.84375 -253.734375 C 632.8125 -194.171875 649.960938 -138.179688 663.296875 -85.765625 C 676.640625 -33.347656 686.171875 8.101562 691.890625 38.59375 C 691.890625 46.21875 688.078125 50.03125 680.453125 50.03125 L 473.171875 50.03125 C 466.503906 50.03125 462.21875 46.695312 460.3125 40.03125 L 315.921875 -451.734375 C 305.441406 -441.242188 294.484375 -431.234375 283.046875 -421.703125 C 271.609375 -412.179688 260.171875 -403.609375 248.734375 -395.984375 L 248.734375 38.59375 C 248.734375 46.21875 244.921875 50.03125 237.296875 50.03125 Z M 87.203125 50.03125 "/></g></g></g><g fill="#000000" fill-opacity="1"><g transform="translate(4251.4438, 1304.21961)"><g><path d="M 310.203125 57.1875 C 253.972656 57.1875 205.609375 49.796875 165.109375 35.015625 C 124.609375 20.242188 81.960938 -0.00390625 37.171875 -25.734375 C 31.453125 -28.585938 28.59375 -32.875 28.59375 -38.59375 L 28.59375 -190.125 C 28.59375 -197.75 32.40625 -201.5625 40.03125 -201.5625 L 380.25 -201.5625 C 405.03125 -201.5625 423.375 -206.5625 435.28125 -216.5625 C 447.195312 -226.570312 453.15625 -238.726562 453.15625 -253.03125 C 453.15625 -272.09375 444.101562 -292.101562 426 -313.0625 C 396.457031 -346.414062 359.765625 -384.0625 315.921875 -426 C 272.085938 -467.9375 230.15625 -511.0625 190.125 -555.375 C 150.101562 -599.6875 115.796875 -643.285156 87.203125 -686.171875 C 58.609375 -729.054688 44.3125 -768.609375 44.3125 -804.828125 C 44.3125 -857.242188 53.125 -902.035156 70.75 -939.203125 C 88.382812 -976.367188 111.734375 -1007.101562 140.796875 -1031.40625 C 169.867188 -1055.707031 202.988281 -1073.578125 240.15625 -1085.015625 C 277.320312 -1096.453125 315.445312 -1102.171875 354.53125 -1102.171875 C 408.84375 -1102.171875 461.492188 -1096.691406 512.484375 -1085.734375 C 563.472656 -1074.773438 602.785156 -1061.191406 630.421875 -1044.984375 C 635.191406 -1042.128906 637.578125 -1037.84375 637.578125 -1032.125 L 637.578125 -880.59375 C 637.578125 -872.96875 633.765625 -869.15625 626.140625 -869.15625 L 254.453125 -869.15625 C 256.359375 -854.863281 263.742188 -836.753906 276.609375 -814.828125 C 289.472656 -792.910156 306.390625 -769.320312 327.359375 -744.0625 C 348.328125 -718.8125 372.628906 -692.601562 400.265625 -665.4375 C 427.898438 -638.28125 456.96875 -611.835938 487.46875 -586.109375 C 519.875 -559.421875 548.460938 -533.445312 573.234375 -508.1875 C 598.015625 -482.9375 618.742188 -456.96875 635.421875 -430.28125 C 652.097656 -403.601562 664.722656 -374.773438 673.296875 -343.796875 C 681.878906 -312.828125 686.171875 -278.28125 686.171875 -240.15625 C 686.171875 -196.320312 676.398438 -156.296875 656.859375 -120.078125 C 637.328125 -83.867188 610.882812 -52.660156 577.53125 -26.453125 C 544.175781 -0.242188 504.625 20.242188 458.875 35.015625 C 413.132812 49.796875 363.578125 57.1875 310.203125 57.1875 Z M 310.203125 57.1875 "/></g></g></g><g fill="#000000" fill-opacity="1"><g transform="translate(4897.586838, 1304.21961)"><g><path d="M 260.171875 50.03125 C 252.546875 50.03125 248.734375 46.21875 248.734375 38.59375 L 248.734375 -873.4375 L 40.03125 -873.4375 C 32.40625 -873.4375 28.59375 -877.25 28.59375 -884.875 L 28.59375 -1076.4375 C 28.59375 -1084.0625 32.40625 -1087.875 40.03125 -1087.875 L 674.734375 -1087.875 C 682.359375 -1087.875 686.171875 -1084.0625 686.171875 -1076.4375 L 686.171875 -884.875 C 686.171875 -877.25 682.359375 -873.4375 674.734375 -873.4375 L 466.03125 -873.4375 L 466.03125 38.59375 C 466.03125 46.21875 462.21875 50.03125 454.59375 50.03125 Z M 260.171875 50.03125 "/></g></g></g><g fill="#ffb900" fill-opacity="1"><g transform="translate(5543.746899, 690.619199)"><g><path d="M 53.171875 30.015625 C 48.597656 30.015625 46.3125 27.726562 46.3125 23.15625 L 46.3125 -84.046875 C 46.3125 -87.484375 47.171875 -90.34375 48.890625 -92.625 C 73.472656 -125.21875 97.769531 -158.378906 121.78125 -192.109375 C 145.800781 -225.847656 167.390625 -260.441406 186.546875 -295.890625 C 205.703125 -331.347656 221.28125 -367.945312 233.28125 -405.6875 C 245.289062 -443.425781 251.582031 -482.300781 252.15625 -522.3125 L 53.171875 -522.3125 C 48.597656 -522.3125 46.3125 -524.597656 46.3125 -529.171875 L 46.3125 -627.8125 C 46.3125 -631.8125 48.03125 -634.671875 51.46875 -636.390625 C 77.769531 -646.109375 102.925781 -652.679688 126.9375 -656.109375 C 150.945312 -659.546875 176.390625 -661.265625 203.265625 -661.265625 C 221.566406 -661.265625 241.296875 -657.972656 262.453125 -651.390625 C 283.609375 -644.816406 303.046875 -633.8125 320.765625 -618.375 C 338.492188 -602.9375 353.21875 -582.921875 364.9375 -558.328125 C 376.664062 -533.742188 382.53125 -503.445312 382.53125 -467.4375 C 381.957031 -439.414062 376.8125 -407.96875 367.09375 -373.09375 C 357.375 -338.21875 343.648438 -303.625 325.921875 -269.3125 C 308.191406 -235.007812 286.460938 -202.847656 260.734375 -172.828125 C 235.003906 -142.804688 205.84375 -118.078125 173.25 -98.640625 L 371.375 -98.640625 C 375.945312 -98.640625 378.234375 -96.347656 378.234375 -91.765625 L 378.234375 23.15625 C 378.234375 27.726562 375.945312 30.015625 371.375 30.015625 Z M 53.171875 30.015625 "/></g></g></g><g fill="#000000" fill-opacity="1"><g transform="translate(3296.018891, 1304.21961)"><g><path d="M 101.5 50.03125 C 94.820312 50.03125 91.007812 46.695312 90.0625 40.03125 C 76.71875 -37.164062 65.519531 -126.273438 56.46875 -227.296875 C 47.414062 -328.316406 42.890625 -434.578125 42.890625 -546.078125 C 42.890625 -635.660156 46.222656 -725.71875 52.890625 -816.25 C 59.566406 -906.789062 71.003906 -993.992188 87.203125 -1077.859375 C 88.148438 -1084.535156 91.960938 -1087.875 98.640625 -1087.875 L 251.59375 -1087.875 C 259.21875 -1087.875 263.03125 -1084.0625 263.03125 -1076.4375 L 263.03125 -164.390625 L 660.4375 -164.390625 C 668.0625 -164.390625 671.875 -160.578125 671.875 -152.953125 L 671.875 38.59375 C 671.875 46.21875 668.0625 50.03125 660.4375 50.03125 Z M 101.5 50.03125 "/></g></g></g><g fill="#000000" fill-opacity="1"><g transform="translate(3764.899672, 1304.21961)"><g><path d="M 260.171875 50.03125 C 252.546875 50.03125 248.734375 46.21875 248.734375 38.59375 L 248.734375 -1076.4375 C 248.734375 -1084.0625 252.546875 -1087.875 260.171875 -1087.875 L 454.59375 -1087.875 C 462.21875 -1087.875 466.03125 -1084.0625 466.03125 -1076.4375 L 466.03125 38.59375 C 466.03125 46.21875 462.21875 50.03125 454.59375 50.03125 Z M 260.171875 50.03125 "/></g></g></g></g></g></svg>