<?xml version="1.0" encoding="UTF-8"?><svg id="a" xmlns="http://www.w3.org/2000/svg" viewBox="0 0 300 90"><defs><style>.b{fill:#fff;}.c{fill:#e10600;}</style></defs><g><path class="b" d="m139.72,63.38c0-1.56-2.37-1.56-2.37,0s2.37,1.55,2.37,0m-2.17,10.33h1.92c.05,0,.11-.04.11-.11v-7.76c0-.05-.05-.11-.11-.11h-1.92c-.05,0-.11.05-.11.11v7.76c0,.07.05.11.11.11m-26.34-7.87c0-.05.04-.11.11-.11h1.91c.05,0,.11.05.11.11v7.76c0,.05-.04.11-.11.11h-1.91c-.05,0-.11-.04-.11-.11v-.59c-.67.62-1.45.63-2.15.64h-.12c-1.14,0-2.11-.36-2.8-1.04-.73-.71-1.11-1.77-1.11-3.03,0-2.44,1.55-4,3.96-4h.04c.75,0,1.54.08,2.18.59v-.33Zm-.41,5.17c.32-.38.47-.88.47-1.43,0-1-.6-2.04-2.07-2.04-1.21,0-2.02.84-2.02,2.07s.81,2.08,2.02,2.08c.62-.01,1.25-.27,1.6-.69m25.48,2.7c.05,0,.11-.04.11-.11v-1.74c0-.05-.04-.11-.11-.11h-.95c-.55-.03-.81-.3-.81-.89v-2.96h1.74c.05,0,.11-.05.11-.11v-1.93c0-.05-.04-.11-.11-.11h-1.73v-1.69c0-.05-.05-.11-.11-.11h-1.92c-.05,0-.11.05-.11.11v6.8c0,1.81,1.01,2.85,2.81,2.85h.36s.71,0,.71,0Zm9.94-2.48s-.11-.04-.15-.01c-.37.3-.85.48-1.3.48-1.17,0-1.97-.84-1.97-2.04s.81-2.04,1.97-2.04c.45,0,.93.18,1.3.48.04.04.11.03.15-.01l1.23-1.3s.04-.11,0-.15c-.8-.75-1.6-1.07-2.72-1.07-2.5,0-4.1,1.6-4.1,4.09s1.6,4.09,4.1,4.09c1.1,0,1.92-.32,2.72-1.07.04-.04.04-.11,0-.15l-1.23-1.28Zm-40.69-7.42v-1.86c0-.07-.05-.14-.14-.14h-6.91c-.07,0-.14.05-.14.14v11.63c0,.07.07.14.14.14h1.86c.07,0,.14-.05.14-.14v-4.74c0-.07.05-.14.14-.14h3.48c.07,0,.14-.05.14-.14v-1.86c0-.07-.05-.14-.14-.14h-3.48c-.07,0-.14-.05-.14-.14v-2.33c0-.07.05-.14.14-.14h4.77c.08,0,.14-.05.14-.14m23.64,2.03c0-.05.04-.11.11-.11h1.91c.05,0,.11.05.11.11v7.76c0,.05-.04.11-.11.11h-1.91c-.05,0-.11-.04-.11-.11v-.59c-.67.62-1.45.63-2.15.64h-.12c-1.14,0-2.11-.36-2.8-1.04-.73-.71-1.11-1.77-1.11-3.03,0-2.44,1.55-4,3.96-4h.04c.75,0,1.54.08,2.18.59v-.33Zm-.41,5.17c.32-.38.47-.88.47-1.43,0-1-.62-2.04-2.07-2.04-1.21,0-2.02.84-2.02,2.07s.81,2.08,2.02,2.08c.6-.01,1.25-.27,1.6-.69m19.29,1.3s-.03.11.01.14c1.14,1.14,2.37,1.29,3.46,1.29,1.51,0,2.65-.58,3.11-1.59.14-.3.22-.64.22-.99,0-2.04-1.76-2.41-3.29-2.52-1.22-.08-1.22-.51-1.22-.64,0-.52.82-.58,1.18-.58.69,0,1.19.16,1.63.53.04.04.11.04.15-.01l1.08-1.26s.04-.11-.01-.15c-.8-.66-1.63-.93-2.88-.93-.8,0-1.56.19-2.14.53-.74.44-1.12,1.1-1.12,1.92,0,1.43,1.14,2.29,3.2,2.44,1.17.07,1.32.41,1.32.69,0,.43-.56.64-1.12.64h-.05c-.91-.01-1.77-.34-2.34-.89-.04-.04-.12-.04-.16.01l-1,1.37Zm-29.25-6.66c1.96,0,3.28,1.52,3.28,3.77v4.18c0,.05-.05.11-.11.11h-1.92c-.05,0-.11-.04-.11-.11v-4.17c0-.88-.43-1.81-1.62-1.81h-.04c-.92.01-1.69.82-1.69,1.76v4.22c0,.05-.05.11-.11.11h-1.91c-.05,0-.11-.04-.11-.11v-7.75c0-.05.05-.11.11-.11h1.84c.05,0,.11.04.11.11v.69c.73-.62,1.44-.89,2.28-.89"/><path class="b" d="m89.31,68.44s.08,0,.11-.03l2.43-3.74s0-.11-.05-.12c-3.48-1.21-6.75,1.11-11.72,1.23-.12,0-.26.15-.16.32l5.38,8.3c.08.14.26.05.25-.08l-1.15-5.25s.01-.08.07-.11c.38-.15,3.43-1.18,4.87-.51m5.81-8.87l-1.99,3.1c-.04.07-.12.1-.19.07-4.59-2.32-9.9,1.93-14.58.92-.04-.01-.08-.03-.11-.07,0,0-2.26-3.48-3.02-4.65-.1-.15.03-.36.22-.32.41.1,2.17.48,3.54.58,7.1.38,10.96-3.88,16.1.16.05.04.07.14.03.21"/><polygon class="b" points="167.74 73.42 160.19 73.42 160.19 63.19 167.7 63.19 167.7 64.78 161.83 64.78 161.83 67.55 167.47 67.55 167.47 69.06 161.83 69.06 161.83 71.82 167.74 71.82 167.74 73.42"/><polygon class="b" points="173.92 66.22 175.74 66.22 175.74 66.26 173.31 69.76 175.9 73.38 175.9 73.42 174.08 73.42 172.32 70.8 170.56 73.42 168.75 73.42 168.75 73.38 171.32 69.76 168.9 66.26 168.9 66.22 170.71 66.22 172.32 68.79 173.92 66.22"/><path class="b" d="m180.99,72.15c.33,0,.63-.05.92-.18.27-.11.52-.27.73-.48.21-.21.36-.45.48-.73.11-.29.16-.59.16-.93,0-.69-.21-1.23-.62-1.66-.41-.43-.96-.63-1.66-.63-.34,0-.66.05-.95.18-.27.12-.51.27-.71.49-.19.21-.34.45-.45.73-.11.27-.16.58-.16.89s.05.62.16.91.26.53.47.74.44.37.71.49c.29.12.59.18.92.18m-3.89,4.62v-10.55h1.41l.08,1.17c.29-.44.66-.77,1.11-.99s.93-.33,1.43-.33c.53,0,1.03.1,1.48.29s.84.45,1.15.78c.32.33.58.73.74,1.19.18.47.26.96.26,1.49s-.08,1.07-.26,1.52c-.16.47-.41.86-.73,1.19-.32.34-.7.59-1.15.78-.45.18-.96.27-1.51.27-.22,0-.45-.03-.7-.05-.23-.04-.47-.11-.7-.21s-.44-.22-.64-.38c-.21-.15-.37-.34-.51-.56v4.37s-1.47,0-1.47,0Z"/><path class="b" d="m191.91,69.14c-.05-.59-.26-1.01-.64-1.3s-.88-.43-1.49-.43c-.56,0-1.04.15-1.45.43-.41.29-.67.73-.78,1.3h4.37Zm-4.4,1.26c.07.55.32,1,.73,1.32.41.33.96.49,1.63.49.37,0,.75-.07,1.15-.19.4-.14.71-.33.93-.58l.97.95c-.18.21-.4.38-.64.53-.25.15-.49.29-.77.38s-.55.18-.84.23c-.29.04-.58.07-.85.07-.59,0-1.14-.1-1.6-.27-.48-.18-.88-.44-1.22-.77s-.6-.73-.78-1.21c-.19-.47-.27-1-.27-1.58s.1-1.06.27-1.51c.18-.47.44-.86.77-1.19.33-.33.73-.59,1.19-.77.47-.19.97-.27,1.54-.27s1.11.1,1.59.27c.47.18.88.45,1.19.81.33.36.56.81.71,1.36s.19,1.18.12,1.92c0,0-5.83,0-5.83,0Z"/><path class="b" d="m196.3,66.22l.1.95c.26-.45.59-.75.96-.91.38-.14.77-.22,1.15-.22.36,0,.69.05,1,.16.32.11.58.26.78.44l-.69,1.32c-.19-.15-.37-.26-.56-.33-.19-.07-.43-.11-.71-.11-.26,0-.51.04-.74.12s-.44.21-.62.37c-.18.16-.32.37-.43.62s-.16.53-.16.86v3.89h-1.51v-7.17h1.43Z"/><path class="b" d="m202.82,73.42h-1.51v-7.23h1.51v7.23Zm-1.69-9.32c0-.32.1-.55.29-.7.19-.15.41-.23.64-.23s.45.08.64.23c.19.15.29.38.29.7s-.1.55-.29.7c-.19.15-.41.23-.64.23s-.45-.08-.64-.23-.29-.38-.29-.7"/><path class="b" d="m210.38,69.14c-.05-.59-.26-1.01-.64-1.3s-.88-.43-1.49-.43c-.56,0-1.04.15-1.45.43-.41.29-.67.73-.78,1.3h4.37Zm-4.39,1.26c.07.55.32,1,.73,1.32.41.33.96.49,1.63.49.37,0,.75-.07,1.15-.19.4-.14.71-.33.93-.58l.97.95c-.18.21-.4.38-.64.53-.25.15-.49.29-.77.38s-.55.18-.84.23c-.29.04-.58.07-.85.07-.59,0-1.12-.1-1.6-.27-.48-.18-.88-.44-1.22-.77s-.6-.73-.78-1.21c-.18-.47-.27-1-.27-1.58s.1-1.06.27-1.51c.18-.47.44-.86.77-1.19.33-.33.73-.59,1.19-.77.47-.19.97-.27,1.54-.27s1.11.1,1.59.27c.47.18.88.45,1.19.81.33.36.56.81.71,1.36s.19,1.18.12,1.92c0,0-5.83,0-5.83,0Z"/><path class="b" d="m218.83,73.42v-3.85c0-.62-.16-1.12-.51-1.52-.34-.38-.82-.59-1.44-.59-.3,0-.58.05-.82.18-.25.11-.47.27-.63.48-.18.21-.32.44-.41.7-.1.27-.15.55-.15.84v3.77h-1.51v-7.21h1.37l.08,1.06c.69-.8,1.49-1.18,2.43-1.18.44,0,.85.07,1.22.22s.7.37.97.67c.27.29.49.66.66,1.08.16.44.23.93.23,1.49v3.87h-1.49Z"/><path class="b" d="m228.37,72.5c-.41.41-.84.7-1.28.86-.44.16-.93.26-1.45.26s-1-.08-1.47-.25c-.47-.16-.86-.4-1.21-.71s-.62-.71-.82-1.18c-.21-.47-.3-1.01-.3-1.65s.1-1.17.3-1.65c.21-.47.47-.86.82-1.18.34-.32.75-.56,1.21-.71.45-.16.95-.25,1.48-.25.49,0,.96.08,1.39.25s.84.44,1.22.82l-.95.97c-.23-.21-.49-.36-.78-.47-.29-.1-.58-.15-.85-.15-.32,0-.62.05-.91.16-.29.11-.53.27-.74.48-.21.21-.37.45-.49.74-.11.29-.18.62-.18.97,0,.38.05.71.18,1,.12.29.29.53.49.73.21.21.45.34.73.44s.58.15.88.15.62-.05.92-.15.56-.27.8-.52l1.01,1.01Z"/><path class="b" d="m235.06,69.14c-.05-.59-.26-1.01-.64-1.3s-.88-.43-1.49-.43c-.56,0-1.04.15-1.44.43-.41.29-.67.73-.8,1.3h4.37Zm-4.4,1.26c.07.55.3,1,.73,1.32.41.33.96.49,1.63.49.37,0,.75-.07,1.15-.19.4-.14.71-.33.93-.58l.97.95c-.18.21-.4.38-.64.53-.25.15-.49.29-.77.38-.26.1-.55.18-.84.23-.29.04-.58.07-.85.07-.59,0-1.12-.1-1.6-.27-.48-.18-.88-.44-1.22-.77s-.6-.73-.78-1.21c-.19-.47-.27-1-.27-1.58s.1-1.06.27-1.51c.18-.47.44-.86.78-1.19.33-.33.73-.59,1.19-.77.47-.19.97-.27,1.54-.27s1.11.1,1.59.27c.47.18.88.45,1.19.81.33.36.56.81.71,1.36s.19,1.18.12,1.92c0,0-5.84,0-5.84,0Z"/><path class="b" d="m68.94,65.18l-2.17,4.87h4.32l-2.15-4.87Zm2.76,6.35h-5.54l-.96,2.15h-1.73l4.59-10.23h1.78l4.58,10.23h-1.74l-.99-2.15Z"/></g><path class="b" d="m165.61,33.52c-6.66-1.96-9.79-5.47-9.79-10.27,0-6.05,4.36-9.79,12.09-9.79h18.47v7.91h-18.51c-2.07,0-2.78.86-2.78,1.77,0,1.15.77,1.82,2.54,2.34l8.78,2.54c7.49,2.15,11.18,4.94,11.18,10.66s-4.42,10.75-13.82,10.75h-16.99v-7.91h18.42c2.44,0,3.26-1.1,3.26-2.4,0-1.54-.91-2.11-4.22-3.07l-8.61-2.52Z"/><path class="b" d="m189.51,20.65h4.65v-5.86h8.39v5.86h9.83v6.95h-9.83v11.66c0,2.44.96,3.21,3.26,3.21h6.57v6.95h-7.62c-7.97,0-11.08-3.26-11.08-10.18v-11.66h-4.17v-6.94h0Z"/><path class="b" d="m231.73,27.03h-3.17c-3.55,0-4.74,1.77-4.74,5.51v4.94c0,3.78,1.19,5.57,4.74,5.57h3.17c3.55,0,4.7-1.77,4.7-5.57v-4.94c0-3.73-1.15-5.51-4.7-5.51m14.06,9.75c0,8.06-4.99,13.15-13.96,13.15h-3.36c-8.97,0-14.01-5.09-14.01-13.15v-3.46c0-8.06,5.03-13.15,14.01-13.15h3.36c8.97,0,13.96,5.09,13.96,13.15v3.46Z"/><path class="b" d="m260.61,20.65h8.45v6.95h-6.38c-3.26,0-4.13,1-4.13,3.84v17.99h-9.12v-18.09c0-5.46,3.17-10.7,11.18-10.7"/><path class="b" d="m283.02,26.7c-3.07,0-4.13,1.25-4.13,4.36v.63h11.94v-.63c0-3.11-1.15-4.36-4.07-4.36h-3.74Zm-4.13,11.04v.19c0,3.65,1.39,4.55,5.32,4.55h14.59v6.95h-14.06c-11.27,0-15.11-5.22-15.11-12.96v-3.65c0-7.62,4.03-12.57,14.15-12.57h1.92c10.85,0,13.77,5.38,13.77,13.29v4.17h-20.58v.03Z"/><g><path class="c" d="m37.02,33.83l-16.04,15.56H.53l25.45-25.26c9.46-9.36,14.02-10.9,30.15-10.9h63.72l-13.83,13.54h-48.06c-12.05,0-14.62.93-20.93,7.06Zm66.93-4.9h-45.71c-12.14,0-14.04.93-19.54,6.43l-14.02,14.02h18.97l4.51-4.51c2.98-2.98,4.31-3.27,10.32-3.27h32.79l12.68-12.68Zm4.95,20.45l36.25-36.16h-22.52l-36.16,36.16h22.42Z"/><path class="c" d="m124.12,49.39c-1.14,0-2.09-.38-2.84-1.14-.76-.76-1.13-1.7-1.13-2.82s.38-2.05,1.13-2.81c.75-.76,1.7-1.14,2.84-1.14s2.08.38,2.83,1.14c.75.76,1.12,1.7,1.12,2.82s-.37,2.05-1.11,2.81-1.68,1.14-2.82,1.14Zm-.02-7.29c-.94,0-1.72.32-2.35.97-.63.65-.95,1.43-.95,2.35s.32,1.71.95,2.35c.63.65,1.41.97,2.35.97s1.72-.32,2.35-.96c.63-.64.95-1.43.95-2.35s-.31-1.71-.95-2.36c-.63-.65-1.41-.97-2.35-.97Zm-.77,3.98v1.55h-.87v-4.39h1.65c.57,0,1,.11,1.28.32.29.21.43.53.43.96s-.06.74-.17.95c-.12.21-.31.37-.59.5l.83,1.67h-.92l-.75-1.55h-.89Zm-.02-2.16v1.48h.89c.27,0,.47-.06.59-.17.12-.12.18-.3.18-.56,0-.49-.31-.74-.93-.74h-.72Z"/></g></svg>