<?xml version="1.0" encoding="UTF-8"?>
<!DOCTYPE svg PUBLIC "-//W3C//DTD SVG 1.1//EN" "http://www.w3.org/Graphics/SVG/1.1/DTD/svg11.dtd">
<svg xmlns="http://www.w3.org/2000/svg" version="1.1" width="1900px" height="1300px" style="shape-rendering:geometricPrecision; text-rendering:geometricPrecision; image-rendering:optimizeQuality; fill-rule:evenodd; clip-rule:evenodd" xmlns:xlink="http://www.w3.org/1999/xlink">
<g><path style="opacity:0.992" fill="#fefefe" d="M 355.5,16.5 C 749.833,16.5 1144.17,16.5 1538.5,16.5C 1538.67,226.5 1538.5,436.5 1538,646.5C 1498.8,851.532 1397.63,1018.03 1234.5,1146C 1152.52,1208.49 1061.52,1253.82 961.5,1282C 955.833,1282.67 950.167,1282.67 944.5,1282C 809.132,1243.6 691.965,1175.1 593,1076.5C 546.653,1123.01 500.153,1169.35 453.5,1215.5C 419.847,1182.35 386.347,1149.01 353,1115.5C 352.333,1112.5 352.333,1109.5 353,1106.5C 401.167,1058.33 449.333,1010.17 497.5,962C 410.473,834.919 363.306,694.086 356,539.5C 355.5,365.167 355.333,190.834 355.5,16.5 Z"/></g>
<g><path style="opacity:1" fill="#011f5b" d="M 1499.5,546.5 C 1490.13,497.889 1474.63,451.223 1453,406.5C 1452.82,402.312 1452.32,398.312 1451.5,394.5C 1451.67,312.499 1451.5,230.499 1451,148.5C 1411.3,188.368 1371.47,228.035 1331.5,267.5C 1321.06,257.441 1310.39,247.608 1299.5,238C 1297.92,236.906 1296.26,236.072 1294.5,235.5C 1299.5,230.167 1304.5,224.833 1309.5,219.5C 1324.83,204.833 1339.83,189.833 1354.5,174.5C 1375.3,154.202 1395.97,133.702 1416.5,113C 1370.83,112.5 1325.17,112.333 1279.5,112.5C 1247.5,112.5 1215.5,112.5 1183.5,112.5C 1155.5,112.5 1127.5,112.5 1099.5,112.5C 1027.7,92.532 954.699,87.3654 880.5,97C 855.289,100.208 830.622,105.374 806.5,112.5C 759.167,112.5 711.833,112.5 664.5,112.5C 594.331,112.167 524.331,112.501 454.5,113.5C 454.5,248.5 454.5,383.5 454.5,518.5C 453.504,503.676 453.171,488.676 453.5,473.5C 453.667,450.831 453.5,428.164 453,405.5C 431.574,449.946 416.074,496.279 406.5,544.5C 405.507,384.184 405.174,223.851 405.5,63.5C 770.5,63.5 1135.5,63.5 1500.5,63.5C 1500.82,224.508 1500.48,385.508 1499.5,546.5 Z"/></g>
<g><path style="opacity:1" fill="#00235f" d="M 1099.5,112.5 C 1051.83,112.5 1004.17,112.5 956.5,112.5C 932.167,112.5 907.833,112.5 883.5,112.5C 857.833,112.5 832.167,112.5 806.5,112.5C 830.622,105.374 855.289,100.208 880.5,97C 954.699,87.3654 1027.7,92.532 1099.5,112.5 Z"/></g>
<g><path style="opacity:1" fill="#e0231a" d="M 454.5,113.5 C 458.167,113.5 461.833,113.5 465.5,113.5C 465.833,284.334 465.5,455.001 464.5,625.5C 462.494,611.792 460.494,598.126 458.5,584.5C 457.566,572.827 456.566,561.16 455.5,549.5C 454.733,539.185 454.399,528.852 454.5,518.5C 454.5,383.5 454.5,248.5 454.5,113.5 Z"/></g>
<g><path style="opacity:1" fill="#dd231b" d="M 465.5,113.5 C 511.5,113.5 557.5,113.5 603.5,113.5C 603.832,171.336 603.499,229.002 602.5,286.5C 584.681,246.193 566.848,205.859 549,165.5C 548.167,164.667 547.333,163.833 546.5,163C 532.258,162.177 518.092,162.344 504,163.5C 503.333,234.167 503.333,304.833 504,375.5C 517.091,376.655 530.258,376.822 543.5,376C 544,375.5 544.5,375 545,374.5C 545.333,333.833 545.667,293.167 546,252.5C 559.65,283.136 573.316,313.803 587,344.5C 587.816,345.823 588.983,346.489 590.5,346.5C 594.634,347.485 598.968,347.818 603.5,347.5C 603.825,377.574 603.492,407.574 602.5,437.5C 598.171,450.821 593.838,464.154 589.5,477.5C 575.512,478.333 561.512,478.833 547.5,479C 558.026,487.026 568.693,494.86 579.5,502.5C 579.833,503.333 580.167,504.167 580.5,505C 576.869,516.893 573.036,528.726 569,540.5C 568.333,541.833 568.333,543.167 569,544.5C 580.156,535.922 591.489,527.589 603,519.5C 603.399,519.728 603.565,520.062 603.5,520.5C 603.5,626.833 603.5,733.167 603.5,839.5C 602.909,840.151 602.243,840.818 601.5,841.5C 602.193,842.518 602.859,843.518 603.5,844.5C 603.823,851.022 603.49,857.355 602.5,863.5C 599.521,861.188 596.854,858.521 594.5,855.5C 596.316,853.183 598.316,851.016 600.5,849C 599.646,847.978 598.646,847.145 597.5,846.5C 591.681,851.818 586.015,857.318 580.5,863C 581.354,864.022 582.354,864.855 583.5,865.5C 585.316,864.185 586.983,862.685 588.5,861C 589.5,860.333 590.5,860.333 591.5,861C 595.704,865.036 599.704,869.202 603.5,873.5C 603.5,890.833 603.5,908.167 603.5,925.5C 602.833,926.5 602.167,927.5 601.5,928.5C 600.206,929.29 599.039,930.29 598,931.5C 538.062,853.276 496.562,765.943 473.5,669.5C 470.243,654.881 467.243,640.215 464.5,625.5C 465.5,455.001 465.833,284.334 465.5,113.5 Z"/></g>
<g><path style="opacity:1" fill="#d7231c" d="M 454.5,113.5 C 524.331,112.501 594.331,112.167 664.5,112.5C 668.298,113.483 672.298,113.817 676.5,113.5C 676.5,129.5 676.5,145.5 676.5,161.5C 671.305,161.179 666.305,161.513 661.5,162.5C 659.983,162.511 658.816,163.177 658,164.5C 639.892,205.049 622.058,245.716 604.5,286.5C 603.743,287.773 603.077,287.773 602.5,286.5C 603.499,229.002 603.832,171.336 603.5,113.5C 557.5,113.5 511.5,113.5 465.5,113.5C 461.833,113.5 458.167,113.5 454.5,113.5 Z"/></g>
<g><path style="opacity:1" fill="#d1241d" d="M 676.5,113.5 C 701.167,113.5 725.833,113.5 750.5,113.5C 750.5,129.5 750.5,145.5 750.5,161.5C 744.642,161.178 738.975,161.511 733.5,162.5C 732.883,162.611 732.383,162.944 732,163.5C 731.333,234.167 731.333,304.833 732,375.5C 738.076,376.476 744.242,376.81 750.5,376.5C 750.5,410.167 750.5,443.833 750.5,477.5C 749.325,477.281 748.325,477.614 747.5,478.5C 747.624,479.107 747.957,479.44 748.5,479.5C 749.167,479.833 749.833,480.167 750.5,480.5C 750.5,524.167 750.5,567.833 750.5,611.5C 739.167,611.5 727.833,611.5 716.5,611.5C 712.768,598.304 708.435,585.304 703.5,572.5C 698.577,585.27 694.243,598.27 690.5,611.5C 685.833,611.5 681.167,611.5 676.5,611.5C 676.5,533.167 676.5,454.833 676.5,376.5C 684.507,376.666 692.507,376.5 700.5,376C 701,375.5 701.5,375 702,374.5C 702.667,304.167 702.667,233.833 702,163.5C 688.579,162.51 675.079,162.177 661.5,162.5C 666.305,161.513 671.305,161.179 676.5,161.5C 676.5,145.5 676.5,129.5 676.5,113.5 Z"/></g>
<g><path style="opacity:1" fill="#ca231e" d="M 750.5,113.5 C 779.167,113.5 807.833,113.5 836.5,113.5C 836.5,187.167 836.5,260.833 836.5,334.5C 817.167,334.5 797.833,334.5 778.5,334.5C 777.667,277.668 777.167,220.668 777,163.5C 762.579,162.51 748.079,162.176 733.5,162.5C 738.975,161.511 744.642,161.178 750.5,161.5C 750.5,145.5 750.5,129.5 750.5,113.5 Z"/></g>
<g><path style="opacity:1" fill="#c5231f" d="M 836.5,113.5 C 846.5,113.5 856.5,113.5 866.5,113.5C 866.5,187.167 866.5,260.833 866.5,334.5C 856.5,334.5 846.5,334.5 836.5,334.5C 836.5,260.833 836.5,187.167 836.5,113.5 Z"/></g>
<g><path style="opacity:1" fill="#c32420" d="M 664.5,112.5 C 711.833,112.5 759.167,112.5 806.5,112.5C 832.167,112.5 857.833,112.5 883.5,112.5C 886.287,113.477 889.287,113.81 892.5,113.5C 892.5,190.833 892.5,268.167 892.5,345.5C 892.5,346.833 892.5,348.167 892.5,349.5C 892.5,445.167 892.5,540.833 892.5,636.5C 884.167,645.5 875.5,654.167 866.5,662.5C 866.5,567.167 866.5,471.833 866.5,376.5C 869.777,376.784 872.943,376.451 876,375.5C 876.822,362.258 876.655,349.091 875.5,336C 842.997,335.832 810.664,335.332 778.5,334.5C 797.833,334.5 817.167,334.5 836.5,334.5C 846.5,334.5 856.5,334.5 866.5,334.5C 866.5,260.833 866.5,187.167 866.5,113.5C 856.5,113.5 846.5,113.5 836.5,113.5C 807.833,113.5 779.167,113.5 750.5,113.5C 725.833,113.5 701.167,113.5 676.5,113.5C 672.298,113.817 668.298,113.483 664.5,112.5 Z"/></g>
<g><path style="opacity:1" fill="#bf2421" d="M 892.5,113.5 C 910.833,113.5 929.167,113.5 947.5,113.5C 947.5,129.833 947.5,146.167 947.5,162.5C 910.362,176.529 895.529,203.196 903,242.5C 906.699,255.737 914.199,266.237 925.5,274C 932.529,278.35 939.863,281.85 947.5,284.5C 947.5,300.5 947.5,316.5 947.5,332.5C 937.635,328.319 928.468,322.986 920,316.5C 910.304,325.695 901.137,335.362 892.5,345.5C 892.5,268.167 892.5,190.833 892.5,113.5 Z"/></g>
<g><path style="opacity:1" fill="#b82322" d="M 883.5,112.5 C 907.833,112.5 932.167,112.5 956.5,112.5C 971.658,113.496 986.991,113.83 1002.5,113.5C 1002.5,129.167 1002.5,144.833 1002.5,160.5C 1001.5,160.5 1000.5,160.5 999.5,160.5C 981.984,157.357 964.651,158.024 947.5,162.5C 947.5,146.167 947.5,129.833 947.5,113.5C 929.167,113.5 910.833,113.5 892.5,113.5C 889.287,113.81 886.287,113.477 883.5,112.5 Z"/></g>
<g><path style="opacity:1" fill="#b12323" d="M 1002.5,113.5 C 1023.83,113.5 1045.17,113.5 1066.5,113.5C 1066.5,229.833 1066.5,346.167 1066.5,462.5C 1062.83,466.5 1059.17,470.5 1055.5,474.5C 1041.5,487.833 1027.83,501.5 1014.5,515.5C 1010.5,519.167 1006.5,522.833 1002.5,526.5C 1002.5,476.833 1002.5,427.167 1002.5,377.5C 1045.38,367.428 1064.22,340.428 1059,296.5C 1054.79,279.296 1044.95,266.462 1029.5,258C 1020.29,254.098 1010.96,250.931 1001.5,248.5C 1002.5,233.676 1002.83,218.676 1002.5,203.5C 1010.7,206.266 1018.36,210.099 1025.5,215C 1027.17,215.667 1028.83,215.667 1030.5,215C 1037.7,204.636 1044.7,194.136 1051.5,183.5C 1044.79,177.318 1037.12,172.484 1028.5,169C 1018.92,165.36 1009.25,162.527 999.5,160.5C 1000.5,160.5 1001.5,160.5 1002.5,160.5C 1002.5,144.833 1002.5,129.167 1002.5,113.5 Z"/></g>
<g><path style="opacity:1" fill="#ab2324" d="M 1066.5,113.5 C 1084.83,113.5 1103.17,113.5 1121.5,113.5C 1121.5,211.5 1121.5,309.5 1121.5,407.5C 1111.17,418.167 1100.83,428.833 1090.5,439.5C 1082.5,447.167 1074.5,454.833 1066.5,462.5C 1066.5,346.167 1066.5,229.833 1066.5,113.5 Z"/></g>
<g><path style="opacity:1" fill="#a62325" d="M 1121.5,113.5 C 1132.17,113.5 1142.83,113.5 1153.5,113.5C 1153.5,200.833 1153.5,288.167 1153.5,375.5C 1145.83,383.5 1138.17,391.5 1130.5,399.5C 1127.5,402.167 1124.5,404.833 1121.5,407.5C 1121.5,309.5 1121.5,211.5 1121.5,113.5 Z"/></g>
<g><path style="opacity:1" fill="#a32326" d="M 1153.5,113.5 C 1158.5,113.5 1163.5,113.5 1168.5,113.5C 1168.5,195.833 1168.5,278.167 1168.5,360.5C 1163.83,365.833 1158.83,370.833 1153.5,375.5C 1153.5,288.167 1153.5,200.833 1153.5,113.5 Z"/></g>
<g><path style="opacity:1" fill="#9f2326" d="M 956.5,112.5 C 1004.17,112.5 1051.83,112.5 1099.5,112.5C 1127.5,112.5 1155.5,112.5 1183.5,112.5C 1192.99,113.494 1202.65,113.827 1212.5,113.5C 1212.5,181.167 1212.5,248.833 1212.5,316.5C 1212.5,316.833 1212.5,317.167 1212.5,317.5C 1199.17,330.167 1186.17,343.167 1173.5,356.5C 1171.83,357.833 1170.17,359.167 1168.5,360.5C 1168.5,278.167 1168.5,195.833 1168.5,113.5C 1163.5,113.5 1158.5,113.5 1153.5,113.5C 1142.83,113.5 1132.17,113.5 1121.5,113.5C 1103.17,113.5 1084.83,113.5 1066.5,113.5C 1045.17,113.5 1023.83,113.5 1002.5,113.5C 986.991,113.83 971.658,113.496 956.5,112.5 Z"/></g>
<g><path style="opacity:1" fill="#992327" d="M 1212.5,113.5 C 1229.83,113.5 1247.17,113.5 1264.5,113.5C 1264.5,163.833 1264.5,214.167 1264.5,264.5C 1259.5,269.833 1254.5,275.167 1249.5,280.5C 1237.17,292.5 1224.83,304.5 1212.5,316.5C 1212.5,248.833 1212.5,181.167 1212.5,113.5 Z"/></g>
<g><path style="opacity:1" fill="#922329" d="M 1183.5,112.5 C 1215.5,112.5 1247.5,112.5 1279.5,112.5C 1289.32,113.494 1299.32,113.827 1309.5,113.5C 1309.5,148.833 1309.5,184.167 1309.5,219.5C 1304.5,224.833 1299.5,230.167 1294.5,235.5C 1287.83,241.5 1281.5,247.833 1275.5,254.5C 1271.83,257.833 1268.17,261.167 1264.5,264.5C 1264.5,214.167 1264.5,163.833 1264.5,113.5C 1247.17,113.5 1229.83,113.5 1212.5,113.5C 1202.65,113.827 1192.99,113.494 1183.5,112.5 Z"/></g>
<g><path style="opacity:1" fill="#8c232a" d="M 1309.5,113.5 C 1324.5,113.5 1339.5,113.5 1354.5,113.5C 1354.5,133.833 1354.5,154.167 1354.5,174.5C 1339.83,189.833 1324.83,204.833 1309.5,219.5C 1309.5,184.167 1309.5,148.833 1309.5,113.5 Z"/></g>
<g><path style="opacity:1" fill="#85232b" d="M 1279.5,112.5 C 1325.17,112.333 1370.83,112.5 1416.5,113C 1395.97,133.702 1375.3,154.202 1354.5,174.5C 1354.5,154.167 1354.5,133.833 1354.5,113.5C 1339.5,113.5 1324.5,113.5 1309.5,113.5C 1299.32,113.827 1289.32,113.494 1279.5,112.5 Z"/></g>
<g><path style="opacity:1" fill="#fefefe" d="M 1451.5,394.5 C 1451.5,401.833 1451.5,409.167 1451.5,416.5C 1451.78,459.178 1451.44,501.845 1450.5,544.5C 1449.29,558.1 1448.29,571.766 1447.5,585.5C 1441.59,628.728 1432.59,671.395 1420.5,713.5C 1376.07,852.856 1297.07,968.189 1183.5,1059.5C 1148.85,1086.5 1112.18,1110.5 1073.5,1131.5C 1060.97,1137.26 1048.64,1143.26 1036.5,1149.5C 1009.13,1161.9 980.964,1172.24 952,1180.5C 923.453,1172.04 895.62,1161.71 868.5,1149.5C 856.565,1143.53 844.565,1137.53 832.5,1131.5C 808.067,1118.39 784.4,1104.06 761.5,1088.5C 713.297,1054.82 669.463,1015.82 630,971.5C 629.333,970.833 629.333,970.167 630,969.5C 631.376,968.295 632.542,966.962 633.5,965.5C 647.167,952.5 660.5,939.167 673.5,925.5C 686.833,912.833 699.833,899.833 712.5,886.5C 726.833,872.833 740.833,858.833 754.5,844.5C 768.833,830.833 782.833,816.833 796.5,802.5C 807.833,791.833 818.833,780.833 829.5,769.5C 846.167,753.5 862.5,737.167 878.5,720.5C 891.833,707.833 904.833,694.833 917.5,681.5C 940.833,658.833 963.833,635.833 986.5,612.5C 997.5,602.167 1008.17,591.5 1018.5,580.5C 1031.17,568.5 1043.5,556.167 1055.5,543.5C 1069.17,530.5 1082.5,517.167 1095.5,503.5C 1107.17,492.5 1118.5,481.167 1129.5,469.5C 1143.17,456.5 1156.5,443.167 1169.5,429.5C 1183.83,415.833 1197.83,401.833 1211.5,387.5C 1224.83,374.833 1237.83,361.833 1250.5,348.5C 1262.83,336.833 1274.83,324.833 1286.5,312.5C 1295.5,304.167 1304.17,295.5 1312.5,286.5C 1319.17,280.5 1325.5,274.167 1331.5,267.5C 1371.47,228.035 1411.3,188.368 1451,148.5C 1451.5,230.499 1451.67,312.499 1451.5,394.5 Z"/></g>
<g><path style="opacity:1" fill="#fefdfd" d="M 999.5,160.5 C 1009.25,162.527 1018.92,165.36 1028.5,169C 1037.12,172.484 1044.79,177.318 1051.5,183.5C 1044.7,194.136 1037.7,204.636 1030.5,215C 1028.83,215.667 1027.17,215.667 1025.5,215C 1018.36,210.099 1010.7,206.266 1002.5,203.5C 989.731,199.3 976.731,198.466 963.5,201C 949.455,207.589 945.288,218.089 951,232.5C 957.115,239.644 964.949,243.811 974.5,245C 983.428,246.776 992.428,247.942 1001.5,248.5C 1010.96,250.931 1020.29,254.098 1029.5,258C 1044.95,266.462 1054.79,279.296 1059,296.5C 1064.22,340.428 1045.38,367.428 1002.5,377.5C 984.055,380.449 965.722,380.116 947.5,376.5C 926.578,372.538 908.244,363.538 892.5,349.5C 892.5,348.167 892.5,346.833 892.5,345.5C 901.137,335.362 910.304,325.695 920,316.5C 928.468,322.986 937.635,328.319 947.5,332.5C 965.198,341.14 983.198,341.64 1001.5,334C 1012.73,325.861 1015.56,315.361 1010,302.5C 1006.61,298.554 1002.45,295.72 997.5,294C 980.814,290.879 964.147,287.712 947.5,284.5C 939.863,281.85 932.529,278.35 925.5,274C 914.199,266.237 906.699,255.737 903,242.5C 895.529,203.196 910.362,176.529 947.5,162.5C 964.651,158.024 981.984,157.357 999.5,160.5 Z"/></g>
<g><path style="opacity:1" fill="#fefdfd" d="M 602.5,286.5 C 603.077,287.773 603.743,287.773 604.5,286.5C 622.058,245.716 639.892,205.049 658,164.5C 658.816,163.177 659.983,162.511 661.5,162.5C 675.079,162.177 688.579,162.51 702,163.5C 702.667,233.833 702.667,304.167 702,374.5C 701.5,375 701,375.5 700.5,376C 692.507,376.5 684.507,376.666 676.5,376.5C 671.821,376.666 667.155,376.499 662.5,376C 662,375.5 661.5,375 661,374.5C 660.667,333.833 660.333,293.167 660,252.5C 645.801,282.9 632.135,313.567 619,344.5C 618.5,345 618,345.5 617.5,346C 608.506,346.5 599.506,346.666 590.5,346.5C 588.983,346.489 587.816,345.823 587,344.5C 573.316,313.803 559.65,283.136 546,252.5C 545.667,293.167 545.333,333.833 545,374.5C 544.5,375 544,375.5 543.5,376C 530.258,376.822 517.091,376.655 504,375.5C 503.333,304.833 503.333,234.167 504,163.5C 518.092,162.344 532.258,162.177 546.5,163C 547.333,163.833 548.167,164.667 549,165.5C 566.848,205.859 584.681,246.193 602.5,286.5 Z"/></g>
<g><path style="opacity:1" fill="#fefefe" d="M 733.5,162.5 C 748.079,162.176 762.579,162.51 777,163.5C 777.167,220.668 777.667,277.668 778.5,334.5C 810.664,335.332 842.997,335.832 875.5,336C 876.655,349.091 876.822,362.258 876,375.5C 872.943,376.451 869.777,376.784 866.5,376.5C 856.5,376.5 846.5,376.5 836.5,376.5C 807.833,376.5 779.167,376.5 750.5,376.5C 744.242,376.81 738.076,376.476 732,375.5C 731.333,304.833 731.333,234.167 732,163.5C 732.383,162.944 732.883,162.611 733.5,162.5 Z"/></g>
<g><path style="opacity:1" fill="#b82523" d="M 1002.5,203.5 C 1002.83,218.676 1002.5,233.676 1001.5,248.5C 992.428,247.942 983.428,246.776 974.5,245C 964.949,243.811 957.115,239.644 951,232.5C 945.288,218.089 949.455,207.589 963.5,201C 976.731,198.466 989.731,199.3 1002.5,203.5 Z"/></g>
<g><path style="opacity:1" fill="#022965" d="M 1294.5,235.5 C 1296.26,236.072 1297.92,236.906 1299.5,238C 1310.39,247.608 1321.06,257.441 1331.5,267.5C 1325.5,274.167 1319.17,280.5 1312.5,286.5C 1300.19,275.856 1287.85,265.189 1275.5,254.5C 1281.5,247.833 1287.83,241.5 1294.5,235.5 Z"/></g>
<g><path style="opacity:1" fill="#d7231c" d="M 676.5,376.5 C 676.5,454.833 676.5,533.167 676.5,611.5C 666.81,611.168 657.144,611.502 647.5,612.5C 647.624,613.107 647.957,613.44 648.5,613.5C 659.789,621.456 670.789,629.79 681.5,638.5C 676.997,651.835 672.831,665.169 669,678.5C 670.972,676.768 673.139,675.435 675.5,674.5C 676.499,733.664 676.832,792.998 676.5,852.5C 664.5,864.833 652.5,877.167 640.5,889.5C 628.167,901.5 615.833,913.5 603.5,925.5C 603.5,908.167 603.5,890.833 603.5,873.5C 605.129,874.625 606.629,875.959 608,877.5C 609.353,876.315 610.52,874.981 611.5,873.5C 608.478,870.147 605.478,866.813 602.5,863.5C 603.49,857.355 603.823,851.022 603.5,844.5C 609.813,850.478 616.146,856.478 622.5,862.5C 623.981,861.52 625.315,860.353 626.5,859C 621.5,854 616.5,849 611.5,844C 618.833,846.667 626.167,849.333 633.5,852C 634.574,851.261 635.241,850.261 635.5,849C 632.439,842.123 629.606,835.289 627,828.5C 632,833.5 637,838.5 642,843.5C 643.353,842.315 644.52,840.981 645.5,839.5C 638.848,832.348 632.015,825.348 625,818.5C 622.778,820.385 620.944,822.551 619.5,825C 622.485,831.444 624.985,837.944 627,844.5C 620.56,841.407 614.06,838.407 607.5,835.5C 606.479,837.188 605.145,838.521 603.5,839.5C 603.5,733.167 603.5,626.833 603.5,520.5C 615.067,527.893 626.233,535.893 637,544.5C 633.569,531.036 629.403,517.703 624.5,504.5C 635.616,495.768 646.949,487.268 658.5,479C 644.5,478.667 630.5,478.333 616.5,478C 612.107,464.317 607.44,450.817 602.5,437.5C 603.492,407.574 603.825,377.574 603.5,347.5C 598.968,347.818 594.634,347.485 590.5,346.5C 599.506,346.666 608.506,346.5 617.5,346C 618,345.5 618.5,345 619,344.5C 632.135,313.567 645.801,282.9 660,252.5C 660.333,293.167 660.667,333.833 661,374.5C 661.5,375 662,375.5 662.5,376C 667.155,376.499 671.821,376.666 676.5,376.5 Z"/></g>
<g><path style="opacity:1" fill="#032f6c" d="M 1275.5,254.5 C 1287.85,265.189 1300.19,275.856 1312.5,286.5C 1304.17,295.5 1295.5,304.167 1286.5,312.5C 1274.74,301.063 1262.4,290.397 1249.5,280.5C 1254.5,275.167 1259.5,269.833 1264.5,264.5C 1268.17,261.167 1271.83,257.833 1275.5,254.5 Z"/></g>
<g><path style="opacity:1" fill="#b82422" d="M 947.5,284.5 C 964.147,287.712 980.814,290.879 997.5,294C 1002.45,295.72 1006.61,298.554 1010,302.5C 1015.56,315.361 1012.73,325.861 1001.5,334C 983.198,341.64 965.198,341.14 947.5,332.5C 947.5,316.5 947.5,300.5 947.5,284.5 Z"/></g>
<g><path style="opacity:1" fill="#033a77" d="M 1249.5,280.5 C 1262.4,290.397 1274.74,301.063 1286.5,312.5C 1274.83,324.833 1262.83,336.833 1250.5,348.5C 1238.72,338.565 1227.06,328.398 1215.5,318C 1214.55,317.517 1213.55,317.351 1212.5,317.5C 1212.5,317.167 1212.5,316.833 1212.5,316.5C 1224.83,304.5 1237.17,292.5 1249.5,280.5 Z"/></g>
<g><path style="opacity:1" fill="#044583" d="M 1212.5,317.5 C 1213.55,317.351 1214.55,317.517 1215.5,318C 1227.06,328.398 1238.72,338.565 1250.5,348.5C 1237.83,361.833 1224.83,374.833 1211.5,387.5C 1202.56,379.682 1193.56,371.849 1184.5,364C 1181.12,360.985 1177.46,358.485 1173.5,356.5C 1186.17,343.167 1199.17,330.167 1212.5,317.5 Z"/></g>
<g><path style="opacity:1" fill="#be2320" d="M 892.5,349.5 C 908.244,363.538 926.578,372.538 947.5,376.5C 947.5,444.833 947.5,513.167 947.5,581.5C 929.5,600.167 911.167,618.5 892.5,636.5C 892.5,540.833 892.5,445.167 892.5,349.5 Z"/></g>
<g><path style="opacity:1" fill="#cb231e" d="M 750.5,376.5 C 779.167,376.5 807.833,376.5 836.5,376.5C 836.5,410.167 836.5,443.833 836.5,477.5C 830.167,477.5 823.833,477.5 817.5,477.5C 813.094,464.447 808.594,451.447 804,438.5C 799.415,451.418 794.915,464.418 790.5,477.5C 776.339,478.167 762.339,478.833 748.5,479.5C 747.957,479.44 747.624,479.107 747.5,478.5C 748.325,477.614 749.325,477.281 750.5,477.5C 750.5,443.833 750.5,410.167 750.5,376.5 Z"/></g>
<g><path style="opacity:1" fill="#c6231f" d="M 836.5,376.5 C 846.5,376.5 856.5,376.5 866.5,376.5C 866.5,471.833 866.5,567.167 866.5,662.5C 862.167,667.167 857.833,671.833 853.5,676.5C 847.833,681.833 842.167,687.167 836.5,692.5C 836.5,642.833 836.5,593.167 836.5,543.5C 837.65,544.85 838.317,544.684 838.5,543C 834.549,530.028 830.216,517.195 825.5,504.5C 836.616,495.768 847.949,487.268 859.5,479C 845.327,478.831 831.327,478.331 817.5,477.5C 823.833,477.5 830.167,477.5 836.5,477.5C 836.5,443.833 836.5,410.167 836.5,376.5 Z"/></g>
<g><path style="opacity:1" fill="#b82321" d="M 947.5,376.5 C 965.722,380.116 984.055,380.449 1002.5,377.5C 1002.5,427.167 1002.5,476.833 1002.5,526.5C 992.833,536.5 983.167,546.5 973.5,556.5C 964.833,564.833 956.167,573.167 947.5,581.5C 947.5,513.167 947.5,444.833 947.5,376.5 Z"/></g>
<g><path style="opacity:1" fill="#045290" d="M 1173.5,356.5 C 1177.46,358.485 1181.12,360.985 1184.5,364C 1193.56,371.849 1202.56,379.682 1211.5,387.5C 1197.83,401.833 1183.83,415.833 1169.5,429.5C 1167.74,428.928 1166.08,428.094 1164.5,427C 1154.39,416.138 1143.05,406.971 1130.5,399.5C 1138.17,391.5 1145.83,383.5 1153.5,375.5C 1158.83,370.833 1163.83,365.833 1168.5,360.5C 1170.17,359.167 1171.83,357.833 1173.5,356.5 Z"/></g>
<g><path style="opacity:1" fill="#002460" d="M 1451.5,394.5 C 1452.32,398.312 1452.82,402.312 1453,406.5C 1474.63,451.223 1490.13,497.889 1499.5,546.5C 1496.97,587.928 1491.3,628.928 1482.5,669.5C 1484.4,602.896 1474.57,537.896 1453,474.5C 1452.83,454.996 1452.33,435.662 1451.5,416.5C 1451.5,409.167 1451.5,401.833 1451.5,394.5 Z"/></g>
<g><path style="opacity:1" fill="#002460" d="M 453.5,473.5 C 437.951,516.405 428.451,560.739 425,606.5C 424.075,626.656 423.242,646.656 422.5,666.5C 413.88,626.256 408.547,585.59 406.5,544.5C 416.074,496.279 431.574,449.946 453,405.5C 453.5,428.164 453.667,450.831 453.5,473.5 Z"/></g>
<g><path style="opacity:1" fill="#055e9d" d="M 1130.5,399.5 C 1143.05,406.971 1154.39,416.138 1164.5,427C 1166.08,428.094 1167.74,428.928 1169.5,429.5C 1156.5,443.167 1143.17,456.5 1129.5,469.5C 1118.45,458.479 1106.45,448.646 1093.5,440C 1092.55,439.517 1091.55,439.351 1090.5,439.5C 1100.83,428.833 1111.17,418.167 1121.5,407.5C 1124.5,404.833 1127.5,402.167 1130.5,399.5 Z"/></g>
<g><path style="opacity:1" fill="#fefcfb" d="M 602.5,437.5 C 607.44,450.817 612.107,464.317 616.5,478C 630.5,478.333 644.5,478.667 658.5,479C 646.949,487.268 635.616,495.768 624.5,504.5C 629.403,517.703 633.569,531.036 637,544.5C 626.233,535.893 615.067,527.893 603.5,520.5C 603.565,520.062 603.399,519.728 603,519.5C 591.489,527.589 580.156,535.922 569,544.5C 568.333,543.167 568.333,541.833 569,540.5C 573.036,528.726 576.869,516.893 580.5,505C 580.167,504.167 579.833,503.333 579.5,502.5C 568.693,494.86 558.026,487.026 547.5,479C 561.512,478.833 575.512,478.333 589.5,477.5C 593.838,464.154 598.171,450.821 602.5,437.5 Z"/></g>
<g><path style="opacity:1" fill="#fefcfb" d="M 817.5,477.5 C 831.327,478.331 845.327,478.831 859.5,479C 847.949,487.268 836.616,495.768 825.5,504.5C 830.216,517.195 834.549,530.028 838.5,543C 838.317,544.684 837.65,544.85 836.5,543.5C 825.823,535.399 814.99,527.399 804,519.5C 792.489,527.589 781.156,535.922 770,544.5C 773.302,530.808 777.469,517.308 782.5,504C 771.955,495.949 761.289,488.116 750.5,480.5C 749.833,480.167 749.167,479.833 748.5,479.5C 762.339,478.833 776.339,478.167 790.5,477.5C 794.915,464.418 799.415,451.418 804,438.5C 808.594,451.447 813.094,464.447 817.5,477.5 Z"/></g>
<g><path style="opacity:1" fill="#002966" d="M 1451.5,416.5 C 1452.33,435.662 1452.83,454.996 1453,474.5C 1474.57,537.896 1484.4,602.896 1482.5,669.5C 1471.99,715.866 1457.33,760.866 1438.5,804.5C 1437.9,804.265 1437.57,803.765 1437.5,803C 1464.5,717.826 1468.83,631.659 1450.5,544.5C 1451.44,501.845 1451.78,459.178 1451.5,416.5 Z"/></g>
<g><path style="opacity:1" fill="#0569a9" d="M 1090.5,439.5 C 1091.55,439.351 1092.55,439.517 1093.5,440C 1106.45,448.646 1118.45,458.479 1129.5,469.5C 1118.5,481.167 1107.17,492.5 1095.5,503.5C 1084.57,493.404 1072.9,484.237 1060.5,476C 1058.98,474.991 1057.31,474.491 1055.5,474.5C 1059.17,470.5 1062.83,466.5 1066.5,462.5C 1074.5,454.833 1082.5,447.167 1090.5,439.5 Z"/></g>
<g><path style="opacity:1" fill="#002966" d="M 453.5,473.5 C 453.171,488.676 453.504,503.676 454.5,518.5C 454.399,528.852 454.733,539.185 455.5,549.5C 454.778,549.082 454.278,548.416 454,547.5C 436.954,634.234 441.788,719.734 468.5,804C 468.43,804.765 468.097,805.265 467.5,805.5C 447.901,760.701 432.901,714.368 422.5,666.5C 423.242,646.656 424.075,626.656 425,606.5C 428.451,560.739 437.951,516.405 453.5,473.5 Z"/></g>
<g><path style="opacity:1" fill="#cb231e" d="M 750.5,480.5 C 761.289,488.116 771.955,495.949 782.5,504C 777.469,517.308 773.302,530.808 770,544.5C 781.156,535.922 792.489,527.589 804,519.5C 814.99,527.399 825.823,535.399 836.5,543.5C 836.5,593.167 836.5,642.833 836.5,692.5C 824.833,704.5 813.167,716.5 801.5,728.5C 789.833,739.5 778.5,750.833 767.5,762.5C 761.833,767.833 756.167,773.167 750.5,778.5C 750.832,725.664 750.499,672.997 749.5,620.5C 752.19,617.815 755.19,615.482 758.5,613.5C 759.043,613.44 759.376,613.107 759.5,612.5C 756.572,611.516 753.572,611.183 750.5,611.5C 750.5,567.833 750.5,524.167 750.5,480.5 Z"/></g>
<g><path style="opacity:1" fill="#0675b5" d="M 1055.5,474.5 C 1057.31,474.491 1058.98,474.991 1060.5,476C 1072.9,484.237 1084.57,493.404 1095.5,503.5C 1082.5,517.167 1069.17,530.5 1055.5,543.5C 1043.39,531.942 1029.73,522.609 1014.5,515.5C 1027.83,501.5 1041.5,487.833 1055.5,474.5 Z"/></g>
<g><path style="opacity:1" fill="#022d6a" d="M 1450.5,544.5 C 1468.83,631.659 1464.5,717.826 1437.5,803C 1437.57,803.765 1437.9,804.265 1438.5,804.5C 1398.83,895.799 1343.5,976.133 1272.5,1045.5C 1272.1,1044.47 1271.44,1044.31 1270.5,1045C 1201.9,1100.12 1123.9,1134.95 1036.5,1149.5C 1048.64,1143.26 1060.97,1137.26 1073.5,1131.5C 1209.37,1095.75 1313.2,1017.75 1385,897.5C 1439.86,800.367 1460.69,696.367 1447.5,585.5C 1448.29,571.766 1449.29,558.1 1450.5,544.5 Z"/></g>
<g><path style="opacity:1" fill="#022d69" d="M 455.5,549.5 C 456.566,561.16 457.566,572.827 458.5,584.5C 441.446,737.684 483.946,871.684 586,986.5C 653.776,1058.82 735.943,1107.16 832.5,1131.5C 844.565,1137.53 856.565,1143.53 868.5,1149.5C 780.252,1134.5 701.586,1099 632.5,1043C 631.563,1042.31 630.897,1042.47 630.5,1043.5C 618.228,1031.06 606.061,1018.39 594,1005.5C 586.965,1012.7 579.798,1019.7 572.5,1026.5C 561.472,1014.47 550.472,1002.47 539.5,990.5C 546.964,982.535 554.631,974.702 562.5,967C 524.137,917.386 492.47,863.552 467.5,805.5C 468.097,805.265 468.43,804.765 468.5,804C 441.788,719.734 436.954,634.234 454,547.5C 454.278,548.416 454.778,549.082 455.5,549.5 Z"/></g>
<g><path style="opacity:1" fill="#0681c2" d="M 1014.5,515.5 C 1029.73,522.609 1043.39,531.942 1055.5,543.5C 1043.5,556.167 1031.17,568.5 1018.5,580.5C 1005.69,568.591 990.687,560.591 973.5,556.5C 983.167,546.5 992.833,536.5 1002.5,526.5C 1006.5,522.833 1010.5,519.167 1014.5,515.5 Z"/></g>
<g><path style="opacity:1" fill="#fefbfb" d="M 716.5,611.5 C 730.5,612.167 744.5,612.833 758.5,613.5C 755.19,615.482 752.19,617.815 749.5,620.5C 742.38,625.113 735.38,629.946 728.5,635C 727.101,636.062 726.101,637.395 725.5,639C 730.293,652.192 734.293,665.358 737.5,678.5C 726.167,670.167 714.833,661.833 703.5,653.5C 693.741,660.034 684.407,667.034 675.5,674.5C 673.139,675.435 670.972,676.768 669,678.5C 672.831,665.169 676.997,651.835 681.5,638.5C 670.789,629.79 659.789,621.456 648.5,613.5C 662.5,612.833 676.5,612.167 690.5,611.5C 694.243,598.27 698.577,585.27 703.5,572.5C 708.435,585.304 712.768,598.304 716.5,611.5 Z"/></g>
<g><path style="opacity:1" fill="#012f6c" d="M 458.5,584.5 C 460.494,598.126 462.494,611.792 464.5,625.5C 467.243,640.215 470.243,654.881 473.5,669.5C 481.077,812.153 539.41,929.32 648.5,1021C 682.737,1049.03 720.403,1071.53 761.5,1088.5C 784.4,1104.06 808.067,1118.39 832.5,1131.5C 735.943,1107.16 653.776,1058.82 586,986.5C 483.946,871.684 441.446,737.684 458.5,584.5 Z"/></g>
<g><path style="opacity:1" fill="#098acb" d="M 973.5,556.5 C 990.687,560.591 1005.69,568.591 1018.5,580.5C 1008.17,591.5 997.5,602.167 986.5,612.5C 965.799,596.236 944.466,595.403 922.5,610C 903.371,627.982 899.537,648.816 911,672.5C 913.176,675.529 915.343,678.529 917.5,681.5C 904.833,694.833 891.833,707.833 878.5,720.5C 866.566,707.974 858.232,693.308 853.5,676.5C 857.833,671.833 862.167,667.167 866.5,662.5C 875.5,654.167 884.167,645.5 892.5,636.5C 911.167,618.5 929.5,600.167 947.5,581.5C 956.167,573.167 964.833,564.833 973.5,556.5 Z"/></g>
<g><path style="opacity:1" fill="#00306d" d="M 1447.5,585.5 C 1460.69,696.367 1439.86,800.367 1385,897.5C 1313.2,1017.75 1209.37,1095.75 1073.5,1131.5C 1112.18,1110.5 1148.85,1086.5 1183.5,1059.5C 1263.5,1015.33 1325.33,952.999 1369,872.5C 1395.89,822.65 1413.06,769.65 1420.5,713.5C 1432.59,671.395 1441.59,628.728 1447.5,585.5 Z"/></g>
<g><path style="opacity:1" fill="#0193d6" d="M 986.5,612.5 C 963.833,635.833 940.833,658.833 917.5,681.5C 915.343,678.529 913.176,675.529 911,672.5C 899.537,648.816 903.371,627.982 922.5,610C 944.466,595.403 965.799,596.236 986.5,612.5 Z"/></g>
<g><path style="opacity:1" fill="#e0605b" d="M 676.5,611.5 C 681.167,611.5 685.833,611.5 690.5,611.5C 676.5,612.167 662.5,612.833 648.5,613.5C 647.957,613.44 647.624,613.107 647.5,612.5C 657.144,611.502 666.81,611.168 676.5,611.5 Z"/></g>
<g><path style="opacity:1" fill="#dc5f5a" d="M 716.5,611.5 C 727.833,611.5 739.167,611.5 750.5,611.5C 753.572,611.183 756.572,611.516 759.5,612.5C 759.376,613.107 759.043,613.44 758.5,613.5C 744.5,612.833 730.5,612.167 716.5,611.5 Z"/></g>
<g><path style="opacity:1" fill="#d1231d" d="M 749.5,620.5 C 750.499,672.997 750.832,725.664 750.5,778.5C 741.833,787.5 733.167,796.5 724.5,805.5C 709.833,819.5 695.5,833.833 681.5,848.5C 679.833,849.833 678.167,851.167 676.5,852.5C 676.832,792.998 676.499,733.664 675.5,674.5C 684.407,667.034 693.741,660.034 703.5,653.5C 714.833,661.833 726.167,670.167 737.5,678.5C 734.293,665.358 730.293,652.192 725.5,639C 726.101,637.395 727.101,636.062 728.5,635C 735.38,629.946 742.38,625.113 749.5,620.5 Z"/></g>
<g><path style="opacity:1" fill="#077abb" d="M 853.5,676.5 C 858.232,693.308 866.566,707.974 878.5,720.5C 862.5,737.167 846.167,753.5 829.5,769.5C 824.238,762.394 818.738,755.394 813,748.5C 808.385,742.268 804.552,735.601 801.5,728.5C 813.167,716.5 824.833,704.5 836.5,692.5C 842.167,687.167 847.833,681.833 853.5,676.5 Z"/></g>
<g><path style="opacity:1" fill="#043673" d="M 1420.5,713.5 C 1413.06,769.65 1395.89,822.65 1369,872.5C 1325.33,952.999 1263.5,1015.33 1183.5,1059.5C 1297.07,968.189 1376.07,852.856 1420.5,713.5 Z"/></g>
<g><path style="opacity:1" fill="#043471" d="M 473.5,669.5 C 496.562,765.943 538.062,853.276 598,931.5C 599.039,930.29 600.206,929.29 601.5,928.5C 610.766,938.937 620.266,949.271 630,959.5C 631.421,961.405 632.588,963.405 633.5,965.5C 632.542,966.962 631.376,968.295 630,969.5C 629.333,970.167 629.333,970.833 630,971.5C 669.463,1015.82 713.297,1054.82 761.5,1088.5C 720.403,1071.53 682.737,1049.03 648.5,1021C 539.41,929.32 481.077,812.153 473.5,669.5 Z"/></g>
<g><path style="opacity:1" fill="#076eae" d="M 801.5,728.5 C 804.552,735.601 808.385,742.268 813,748.5C 818.738,755.394 824.238,762.394 829.5,769.5C 818.833,780.833 807.833,791.833 796.5,802.5C 790.236,794.393 783.736,786.393 777,778.5C 773.055,773.607 769.888,768.273 767.5,762.5C 778.5,750.833 789.833,739.5 801.5,728.5 Z"/></g>
<g><path style="opacity:1" fill="#0762a1" d="M 767.5,762.5 C 769.888,768.273 773.055,773.607 777,778.5C 783.736,786.393 790.236,794.393 796.5,802.5C 782.833,816.833 768.833,830.833 754.5,844.5C 744.123,832.955 734.29,820.955 725,808.5C 724.517,807.552 724.351,806.552 724.5,805.5C 733.167,796.5 741.833,787.5 750.5,778.5C 756.167,773.167 761.833,767.833 767.5,762.5 Z"/></g>
<g><path style="opacity:1" fill="#181f57" d="M 603.5,844.5 C 602.859,843.518 602.193,842.518 601.5,841.5C 602.243,840.818 602.909,840.151 603.5,839.5C 605.145,838.521 606.479,837.188 607.5,835.5C 614.06,838.407 620.56,841.407 627,844.5C 624.985,837.944 622.485,831.444 619.5,825C 620.944,822.551 622.778,820.385 625,818.5C 632.015,825.348 638.848,832.348 645.5,839.5C 644.52,840.981 643.353,842.315 642,843.5C 637,838.5 632,833.5 627,828.5C 629.606,835.289 632.439,842.123 635.5,849C 635.241,850.261 634.574,851.261 633.5,852C 626.167,849.333 618.833,846.667 611.5,844C 616.5,849 621.5,854 626.5,859C 625.315,860.353 623.981,861.52 622.5,862.5C 616.146,856.478 609.813,850.478 603.5,844.5 Z"/></g>
<g><path style="opacity:1" fill="#075694" d="M 724.5,805.5 C 724.351,806.552 724.517,807.552 725,808.5C 734.29,820.955 744.123,832.955 754.5,844.5C 740.833,858.833 726.833,872.833 712.5,886.5C 701.433,874.433 691.1,861.766 681.5,848.5C 695.5,833.833 709.833,819.5 724.5,805.5 Z"/></g>
<g><path style="opacity:1" fill="#0c1f59" d="M 602.5,863.5 C 605.478,866.813 608.478,870.147 611.5,873.5C 610.52,874.981 609.353,876.315 608,877.5C 606.629,875.959 605.129,874.625 603.5,873.5C 599.704,869.202 595.704,865.036 591.5,861C 590.5,860.333 589.5,860.333 588.5,861C 586.983,862.685 585.316,864.185 583.5,865.5C 582.354,864.855 581.354,864.022 580.5,863C 586.015,857.318 591.681,851.818 597.5,846.5C 598.646,847.145 599.646,847.978 600.5,849C 598.316,851.016 596.316,853.183 594.5,855.5C 596.854,858.521 599.521,861.188 602.5,863.5 Z"/></g>
<g><path style="opacity:1" fill="#064987" d="M 681.5,848.5 C 691.1,861.766 701.433,874.433 712.5,886.5C 699.833,899.833 686.833,912.833 673.5,925.5C 662.796,914.297 652.63,902.63 643,890.5C 642.329,889.748 641.496,889.414 640.5,889.5C 652.5,877.167 664.5,864.833 676.5,852.5C 678.167,851.167 679.833,849.833 681.5,848.5 Z"/></g>
<g><path style="opacity:1" fill="#063d7a" d="M 640.5,889.5 C 641.496,889.414 642.329,889.748 643,890.5C 652.63,902.63 662.796,914.297 673.5,925.5C 660.5,939.167 647.167,952.5 633.5,965.5C 632.588,963.405 631.421,961.405 630,959.5C 620.266,949.271 610.766,938.937 601.5,928.5C 602.167,927.5 602.833,926.5 603.5,925.5C 615.833,913.5 628.167,901.5 640.5,889.5 Z"/></g>
<g><path style="opacity:1" fill="#03215c" d="M 539.5,990.5 C 550.472,1002.47 561.472,1014.47 572.5,1026.5C 533.188,1066.48 493.521,1106.15 453.5,1145.5C 442.514,1134.01 431.348,1122.68 420,1111.5C 419.333,1110.83 419.333,1110.17 420,1109.5C 459.701,1069.63 499.535,1029.97 539.5,990.5 Z"/></g>
<g><path style="opacity:1" fill="#012965" d="M 630.5,1043.5 C 630.897,1042.47 631.563,1042.31 632.5,1043C 701.586,1099 780.252,1134.5 868.5,1149.5C 895.62,1161.71 923.453,1172.04 952,1180.5C 980.964,1172.24 1009.13,1161.9 1036.5,1149.5C 1123.9,1134.95 1201.9,1100.12 1270.5,1045C 1271.44,1044.31 1272.1,1044.47 1272.5,1045.5C 1229.4,1088.29 1181.73,1124.95 1129.5,1155.5C 1129.44,1154.96 1129.11,1154.62 1128.5,1154.5C 1012.14,1194.14 895.644,1194.47 779,1155.5C 778.235,1155.57 777.735,1155.9 777.5,1156.5C 723.993,1124.89 674.993,1087.22 630.5,1043.5 Z"/></g>
<g><path style="opacity:1" fill="#01235f" d="M 1129.5,1155.5 C 1074.07,1188.6 1015.23,1214.27 953,1232.5C 891.106,1214.63 832.606,1189.29 777.5,1156.5C 777.735,1155.9 778.235,1155.57 779,1155.5C 895.644,1194.47 1012.14,1194.14 1128.5,1154.5C 1129.11,1154.62 1129.44,1154.96 1129.5,1155.5 Z"/></g>
</svg>
